# xmcd
#
# Track frame offsets: 
#        150
#        14928
#        31255
#        44553
#        57327
#        72200
#        85153
#        95307
#        100988
#
# Disc length: 1462 seconds
#
# Revision: 0
# Processed by: cddbd v1.5.2PL0 Copyright (c) Steve Scherf et al.
# Submitted via: ExactAudioCopy v1.0b3
#
DISCID=7605b409
DTITLE=Torture Division - The Army of Three
DYEAR=2014
DGENRE=Death Metal
TTITLE0=Vampire Empire
TTITLE1=Through the Eye of a Dead
TTITLE2=Clark the Monarch
TTITLE3=Cirkelstryk
TTITLE4=Otukt
TTITLE5=Satan, Sprit och Våld
TTITLE6=Bring on the Corpses
TTITLE7=Lik
TTITLE8=Gimp Grind
EXTD=
EXTT0=
EXTT1=
EXTT2=
EXTT3=
EXTT4=
EXTT5=
EXTT6=
EXTT7=
EXTT8=
PLAYORDER=
